<svg width="240" height="240" viewBox="0 0 240 240" fill="none" xmlns="http://www.w3.org/2000/svg">
<rect width="80" height="80" fill="white"/>
<rect x="80" y="80" width="80" height="80" fill="white"/>
<rect y="160" width="80" height="80" fill="white"/>
<rect x="160" width="80" height="80" fill="white"/>
<path d="M104.91 201.725H101.595V186.225H103.805V184H109.345V187.33H104.91V201.725ZM101.595 206.145H98.2803V201.725H101.595V206.145ZM109.345 223.855H103.805V221.63H101.595V206.145H104.91V220.525H109.345V223.855ZM119.305 223.855H112.675V219.42H119.305V215H121.53V210.58H119.305V206.145H117.095V201.725H114.885V197.29H112.675V192.87H117.095V197.29H119.305V201.725H121.53V206.145H125.95V201.725H128.175V197.29H130.385V192.87H134.805V197.29H132.595V201.725H130.385V206.145H128.175V210.58H125.95V215H123.74V219.42H121.53V221.63H119.305V223.855ZM142.54 215H138.12V184H142.54V215ZM151.38 215H146.96V192.87H151.38V195.08H153.59V192.87H160.235V195.08H164.67V192.87H173.525V195.08H175.735V197.29H177.96V215H173.525V199.5H171.315V197.29H166.88V199.5H164.67V215H160.235V199.5H158.025V197.29H153.59V199.5H151.38V215ZM197.88 215H186.8V212.79H184.59V210.58H182.38V197.29H184.59V195.08H186.8V192.87H197.88V195.08H200.09V197.29H202.3V201.725H197.88V199.5H195.655V197.29H189.01V199.5H186.8V208.37H189.01V210.58H195.655V208.37H197.88V206.145H202.3V210.58H200.09V212.79H197.88V215ZM222.235 215H205.63V208.37H207.84V206.145H210.05V203.935H212.26V201.725H214.485V199.5H216.695V197.29H205.63V192.87H222.235V199.5H220.01V201.725H217.8V203.935H215.59V206.145H213.38V208.37H211.155V210.58H222.235V215ZM234.39 201.725H231.06V187.33H226.64V184H232.165V186.225H234.39V201.725ZM237.705 206.145H234.39V201.725H237.705V206.145ZM232.165 223.855H226.64V220.525H231.06V206.145H234.39V221.63H232.165V223.855Z" fill="white"/>
</svg>
